<svg width="776" height="776" viewBox="0 0 776 776" fill="none" xmlns="http://www.w3.org/2000/svg">
<path d="M233 171C188.8 171 153 206.8 153 251V539C153 583.2 188.8 619 233 619H521C565.2 619 601 583.2 601 539V391C601 382.2 593.8 375 585 375C576.2 375 569 382.2 569 391V539C569 565.5 547.5 587 521 587H233C206.5 587 185 565.5 185 539V251C185 224.5 206.5 203 233 203H381C389.8 203 397 195.8 397 187C397 178.2 389.8 171 381 171H233Z" fill="black"/>
<path d="M467.8 151.7C467.8 142.9 475 135.7 483.8 135.7H619.8C628.6 135.7 635.8 142.9 635.8 151.7V295.7C635.8 304.5 628.6 311.7 619.8 311.7C611 311.7 603.8 304.5 603.8 295.7V190.3L399.6 395C393.4 401.2 383.2 401.2 377 395C370.8 388.8 370.8 378.6 377 372.4L581.2 167.7H483.8C475 167.7 467.8 160.5 467.8 151.7Z" fill="black"/>
</svg>
