<svg width="776" height="776" viewBox="0 0 776 776" fill="none" xmlns="http://www.w3.org/2000/svg">
<path d="M345 619C345 601.3 330.7 587 313 587H217C199.3 587 185 572.7 185 555V237C185 219.3 199.3 205 217 205H537C554.7 205 569 219.3 569 237V555C569 572.7 554.7 587 537 587H462.3C455.4 587 448.6 589.2 443.1 593.4L345 667V619ZM217 173C181.7 173 153 201.7 153 237V555C153 590.3 181.7 619 217 619H281H313V651V699C313 705.1 316.4 710.6 321.8 713.3C327.2 716 333.7 715.4 338.6 711.8L462.3 619H537C572.3 619 601 590.3 601 555V237C601 201.7 572.3 173 537 173H217Z" fill="black"/>
<path d="M397 331.5C405.8 331.5 413 324.3 413 315.5C413 306.7 405.8 299.5 397 299.5H269C260.2 299.5 253 306.7 253 315.5C253 324.3 260.2 331.5 269 331.5H397Z" fill="black"/>
<path d="M509 401.5C509 392.7 501.8 385.5 493 385.5H269C260.2 385.5 253 392.7 253 401.5C253 410.3 260.2 417.5 269 417.5H493C501.8 417.5 509 410.3 509 401.5Z" fill="black"/>
<path d="M333 503.5C341.8 503.5 349 496.3 349 487.5C349 478.7 341.8 471.5 333 471.5H269C260.2 471.5 253 478.7 253 487.5C253 496.3 260.2 503.5 269 503.5H333Z" fill="black"/>
</svg>
