<svg width="776" height="776" viewBox="0 0 776 776" fill="none" xmlns="http://www.w3.org/2000/svg">
<path d="M537 203C554.7 203 569 217.3 569 235V555C569 572.7 554.7 587 537 587H512.54L533.152 619H537C572.3 619 601 590.3 601 555V235C601 199.7 572.3 171 537 171H217C181.7 171 153 199.7 153 235V555C153 590.3 181.7 619 217 619H219.743L240.372 587H217C199.3 587 185 572.7 185 555V235C185 217.3 199.3 203 217 203H537Z" fill="black"/>
<path fill-rule="evenodd" clip-rule="evenodd" d="M349.4 531.9L269.2 645.4H269.3C268.785 646.185 268.272 646.959 267.764 647.726C262.059 656.342 257 663.983 257 673.9C257 695.5 274.5 713 296.1 713H457.9C479.5 713 497 695.5 497 673.9C497 663.1 490.5 653 484.7 645.4L404.6 531.9C397.1 524.9 387.2 521 377 521C366.8 521 356.8 524.9 349.4 531.9ZM289 673.9C289 671.9 289.8 670 291.2 668.7L371.4 555.2C372.8 553.8 374.9 553 377 553C379.1 553 381.2 553.9 382.6 555.2L462.8 668.7C464.2 670.1 465 671.9 465 673.9C465 677.8 461.8 681 457.9 681H296.1C292.2 681 289 677.8 289 673.9Z" fill="black"/>
</svg>
