<svg width="776" height="776" viewBox="0 0 776 776" fill="none" xmlns="http://www.w3.org/2000/svg">
<path d="M217 203C199.3 203 185 217.3 185 235V555C185 572.7 199.3 587 217 587H537C554.7 587 569 572.7 569 555V235C569 217.3 554.7 203 537 203H217ZM153 235C153 199.7 181.7 171 217 171H537C572.3 171 601 199.7 601 235V555C601 590.3 572.3 619 537 619H217C181.7 619 153 590.3 153 555V235ZM281 363C289.8 363 297 370.2 297 379V507C297 515.8 289.8 523 281 523C272.2 523 265 515.8 265 507V379C265 370.2 272.2 363 281 363ZM361 283C361 274.2 368.2 267 377 267C385.8 267 393 274.2 393 283V507C393 515.8 385.8 523 377 523C368.2 523 361 515.8 361 507V283ZM473 427C481.8 427 489 434.2 489 443V507C489 515.8 481.8 523 473 523C464.2 523 457 515.8 457 507V443C457 434.2 464.2 427 473 427Z" fill="black"/>
</svg>
