<svg width="776" height="776" viewBox="0 0 776 776" fill="none" xmlns="http://www.w3.org/2000/svg">
<mask id="mask0_112_3" style="mask-type:luminance" maskUnits="userSpaceOnUse" x="153" y="107" width="576" height="512">
<path d="M729 107H153V619H729V107Z" fill="white"/>
</mask>
<g mask="url(#mask0_112_3)">
<path d="M553 387V347V331C553 322.2 545.8 315 537 315H521H505H489H442.5C388.7 315 345 358.6 345 412.5C345 417.8 345.7 422.8 346.9 427.5C328.5 408.9 313 383 313 347C313 276.3 370.3 219 441 219H489H521H537C545.8 219 553 211.8 553 203V187V147C553 142.6 556.6 139 561 139C563.1 139 565 139.8 566.5 141.2L695.3 263.2C696.3 264.2 696.9 265.5 696.9 267C696.9 268.5 696.3 269.8 695.3 270.8L566.5 392.8C565 394.2 563 395 561 395C556.5 395 553 391.4 553 387ZM521 347V379V387C521 409.1 539 427 561 427C571.2 427 581.1 423.1 588.5 416L717.4 294C724.8 287 729 277.2 729 267C729 256.8 724.8 247 717.4 240L588.6 118C581.2 111 571.3 107 561.1 107C539 107 521 124.9 521 147V155V187H489H441C352.6 187 281 258.6 281 347C281 440.4 363.8 481.8 381.6 489.6C383.8 490.6 386.2 491 388.7 491C399.9 491 409 481.9 409 470.7V469.8C409 463 405.7 456.7 400.7 452.1C391.2 443.5 377 428 377 412.4C377 376.3 406.3 346.9 442.5 346.9H489H505H521V347ZM217 171C181.7 171 153 199.7 153 235V555C153 590.3 181.7 619 217 619H537C572.3 619 601 590.3 601 555V507C601 498.2 593.8 491 585 491C576.2 491 569 498.2 569 507V555C569 572.7 554.7 587 537 587H217C199.3 587 185 572.7 185 555V235C185 217.3 199.3 203 217 203H265C273.8 203 281 195.8 281 187C281 178.2 273.8 171 265 171H217Z" fill="black"/>
</g>
</svg>
