<svg width="776" height="776" viewBox="0 0 776 776" fill="none" xmlns="http://www.w3.org/2000/svg">
<path d="M216.868 203H536.868C554.568 203 568.868 217.3 568.868 235V555C568.868 572.7 554.568 587 536.868 587H491.846C484.211 587 477.703 591.809 476.026 599.257C473.786 609.206 481.329 619 491.527 619H536.868C572.168 619 600.868 590.3 600.868 555V235C600.868 199.7 572.168 171 536.868 171H216.868C181.568 171 152.868 199.7 152.868 235V296.822C152.868 309.134 164.926 317.43 175.633 311.351C180.733 308.455 184.868 302.477 184.868 296.61V235C184.868 217.3 199.168 203 216.868 203Z" fill="black"/>
<path fill-rule="evenodd" clip-rule="evenodd" d="M222.402 563.737C232.904 574.239 247.147 580.139 262 580.139C276.853 580.139 291.096 574.239 301.598 563.737C312.1 553.235 318 538.991 318 524.139C318 509.287 312.1 495.043 301.598 484.541C291.096 474.039 276.853 468.139 262 468.139C247.147 468.139 232.904 474.039 222.402 484.541C211.9 495.043 206 509.287 206 524.139C206 538.991 211.9 553.235 222.402 563.737ZM278.971 507.168C283.472 511.669 286 517.773 286 524.139C286 530.504 283.472 536.608 278.971 541.109C274.47 545.61 268.365 548.139 262 548.139C255.635 548.139 249.53 545.61 245.029 541.109C240.528 536.608 238 530.504 238 524.139C238 517.773 240.528 511.669 245.029 507.168C249.53 502.668 255.635 500.139 262 500.139C268.365 500.139 274.47 502.668 278.971 507.168Z" fill="black"/>
<path fill-rule="evenodd" clip-rule="evenodd" d="M94 524.139C94 534.139 94.7998 543.839 96.5 553.339V553.239C97.5 559.339 102 564.339 108 565.938L135.6 573.539C140.7 586.539 147.7 598.639 156.3 609.339L149.2 636.639C147.6 642.639 149.7 648.938 154.4 652.938C161.1 658.539 168.4 663.739 176 668.339L176.2 668.438L180.7 671.039L180.9 671.139C188.5 675.339 196.5 679.039 204.8 682.039C210.6 684.239 217.1 682.739 221.5 678.438L241.6 658.639C248.4 659.739 255.3 660.239 262.3 660.239C269.3 660.239 276.2 659.639 283 658.639L303.1 678.438C307.5 682.739 314 684.139 319.8 682.039C328.1 679.039 336.1 675.339 343.7 671.139L343.9 671.039L348.4 668.438L348.6 668.339C356.2 663.839 363.4 658.639 370.2 652.938C374.9 648.938 377 642.639 375.4 636.639L368.3 609.339C376.9 598.639 383.9 586.639 389 573.539L416.2 566.039C422.1 564.339 426.6 559.438 427.7 553.339C429.3 543.839 430.2 534.039 430.2 524.139C430.2 514.239 429.4 504.539 427.7 495.039C426.7 488.938 422.2 483.938 416.2 482.339L389 474.839C383.9 461.839 376.9 449.739 368.3 439.039L375.4 411.739C376.9 405.739 374.9 399.438 370.2 395.438C363.5 389.839 356.4 384.739 348.9 380.239L348.6 380.039L343.5 377.039L343.2 376.839C335.6 372.739 327.8 369.139 319.6 366.139C313.8 363.938 307.3 365.438 302.9 369.739L282.8 389.539C276 388.438 269.1 387.938 262.1 387.938C255.1 387.938 248.2 388.539 241.4 389.539L221.3 369.739C216.9 365.438 210.4 364.039 204.6 366.139C196.4 369.139 188.5 372.739 181 376.839L180.7 377.039L175.6 379.938L175.3 380.139C167.8 384.639 160.7 389.739 154 395.339C149.3 399.339 147.2 405.639 148.8 411.639L155.9 438.938C147.3 449.739 140.3 461.739 135.2 474.839L108 482.339C102.1 484.039 97.5996 488.938 96.5 495.039C94.9004 504.438 94 514.139 94 524.139ZM151.8 544.839L126.7 537.938V537.839C126.2 533.239 126 528.739 126 524.039C126 519.339 126.2 514.739 126.7 510.239L151.8 503.339C157 501.938 161.2 497.938 162.8 492.739C167.4 478.039 175.1 464.839 185.3 453.739C189 449.739 190.4 444.139 189 438.839L182.4 413.639C185.4 411.539 188.5 409.438 191.7 407.539L196.5 404.739C198.729 403.555 200.959 402.418 203.223 401.331C204.208 400.857 205.199 400.394 206.2 399.938L224.7 418.239C228.6 422.039 234.1 423.639 239.4 422.438C246.7 420.839 254.2 420.039 262 420.039C269.8 420.039 277.4 420.839 284.6 422.438C289.9 423.639 295.4 422.039 299.3 418.239L317.8 399.938C319.972 400.86 322.101 401.912 324.215 403.008C325.312 403.577 326.406 404.158 327.5 404.739L332.3 407.539C335.5 409.438 338.6 411.438 341.6 413.639L335 438.839C333.6 444.139 335 449.739 338.7 453.739C348.8 464.839 356.6 478.039 361.2 492.739C362.8 497.938 367 501.938 372.2 503.339L397.3 510.239C397.8 514.839 398 519.339 398 524.039C398 528.739 397.8 533.339 397.3 537.839L372.2 544.739C367 546.139 362.8 550.139 361.2 555.339C356.6 570.039 348.9 583.239 338.7 594.339C335 598.339 333.6 603.938 335 609.239L341.5 634.438C338.4 636.639 335.2 638.739 331.9 640.739L327.6 643.239C325.749 644.248 323.898 645.226 322.03 646.155C320.567 646.883 319.094 647.58 317.6 648.239L299.1 629.938C295.2 626.139 289.7 624.539 284.4 625.739C277.2 627.339 269.6 628.139 261.9 628.139C254.2 628.139 246.6 627.339 239.4 625.739C234.1 624.539 228.6 626.139 224.7 629.938L206.2 648.239C204.489 647.484 202.803 646.679 201.129 645.835C199.478 645.003 197.839 644.133 196.2 643.239L192 640.839C188.7 638.839 185.5 636.739 182.4 634.539L189 609.339C190.4 604.039 189 598.438 185.3 594.438C175.2 583.339 167.4 570.039 162.8 555.438C161.2 550.239 157 546.239 151.8 544.839Z" fill="black"/>
</svg>
