<svg width="776" height="776" viewBox="0 0 776 776" fill="none" xmlns="http://www.w3.org/2000/svg">
<path fill-rule="evenodd" clip-rule="evenodd" d="M307.369 351.347C301.545 353.759 295.304 355 289 355C282.696 355 276.455 353.759 270.631 351.347C264.808 348.934 259.516 345.398 255.059 340.941C250.602 336.484 247.066 331.192 244.653 325.369C242.241 319.545 241 313.304 241 307C241 300.696 242.241 294.455 244.653 288.631C247.066 282.808 250.602 277.516 255.059 273.059C259.516 268.602 264.808 265.066 270.631 262.653C276.455 260.241 282.696 259 289 259C295.304 259 301.545 260.241 307.369 262.653C313.192 265.066 318.484 268.602 322.941 273.059C327.398 277.516 330.934 282.808 333.347 288.631C335.759 294.455 337 300.696 337 307C337 313.304 335.759 319.545 333.347 325.369C330.934 331.192 327.398 336.484 322.941 340.941C318.484 345.398 313.192 348.934 307.369 351.347ZM300.313 295.687C297.313 292.686 293.243 291 289 291C284.757 291 280.687 292.686 277.687 295.687C274.686 298.687 273 302.757 273 307C273 311.243 274.686 315.313 277.687 318.313C280.687 321.314 284.757 323 289 323C293.243 323 297.313 321.314 300.313 318.313C303.314 315.313 305 311.243 305 307C305 302.757 303.314 298.687 300.313 295.687Z" fill="black"/>
<path fill-rule="evenodd" clip-rule="evenodd" d="M217 619C181.7 619 153 590.3 153 555V235C153 199.7 181.7 171 217 171H537C572.3 171 601 199.7 601 235V555C601 590.3 572.3 619 537 619H217ZM569 235C569 217.3 554.7 203 537 203H217C199.3 203 185 217.3 185 235V555C185 555.115 185.002 555.23 185.002 555.345C185.102 564.733 189.28 573.172 195.768 578.961C196.578 579.68 197.426 580.357 198.307 580.991L319.5 433C332.7 416.7 357.8 417.4 370.1 434.4L397.4 471.9L480 368.6C492.8 352.6 517.2 352.6 530 368.6L569 413.5V235ZM569 462.5L505 388.6L346.3 587H537C554.7 587 569 572.7 569 555V462.5ZM305.3 587L376.7 497.8L344.3 453.2L234.8 587H305.3Z" fill="black"/>
</svg>
