<svg width="776" height="776" viewBox="0 0 776 776" fill="none" xmlns="http://www.w3.org/2000/svg">
<path d="M217.975 202H537.975C555.675 202 569.975 216.3 569.975 234V554C569.975 571.7 555.675 586 537.975 586H512.952C505.318 586 498.81 590.809 497.133 598.257C494.893 608.206 502.436 618 512.634 618H537.975C573.275 618 601.975 589.3 601.975 554V234C601.975 198.7 573.275 170 537.975 170H217.975C182.675 170 153.975 198.7 153.975 234V255.822C153.975 268.134 166.033 276.43 176.74 270.351C181.84 267.455 185.975 261.477 185.975 255.61V234C185.975 216.3 200.275 202 217.975 202Z" fill="black"/>
<path d="M146.727 410.311C140.858 403.734 141.353 393.623 147.859 387.684L153.798 382.31C223.377 319.377 330.009 322.063 396.335 388.391L405.426 401.171L401.608 323.813C401.113 314.975 407.972 307.55 416.81 307.056C425.649 306.561 433.145 313.49 433.569 322.258L439.226 441.052C439.438 445.507 437.741 449.891 434.559 453.073C431.377 456.255 426.992 457.952 422.538 457.74L303.744 452.083C294.976 451.658 288.117 444.093 288.541 435.324C288.965 426.557 296.532 419.697 305.3 420.122L382.798 423.799L373.708 411.018C319.473 356.782 232.146 354.591 175.294 406.068L169.355 411.442C162.779 417.311 152.596 416.887 146.727 410.311Z" fill="black"/>
<path d="M415.516 561.397C421.385 567.974 420.89 578.085 414.385 584.024L408.446 589.398C338.866 652.331 232.234 649.645 165.908 583.317L156.817 570.537L160.635 647.895C161.13 656.733 154.272 664.157 145.433 664.652C136.594 665.147 129.099 658.218 128.674 649.45L123.018 530.656C122.805 526.201 124.502 521.817 127.684 518.635C130.867 515.453 135.25 513.756 139.705 513.968L258.499 519.625C267.267 520.05 274.126 527.615 273.701 536.384C273.278 545.151 265.711 552.011 256.944 551.586L179.445 547.909L188.534 560.69C242.77 614.925 330.098 617.117 386.95 565.64L392.889 560.266C399.465 554.396 409.647 554.821 415.516 561.397Z" fill="black"/>
</svg>
