<svg width="776" height="776" viewBox="0 0 776 776" fill="none" xmlns="http://www.w3.org/2000/svg">
<path d="M607.6 152.3L619.7 164.4C632.2 176.9 632.2 197.2 619.7 209.7L593 236.4L535.6 179L562.3 152.3C574.8 139.8 595.1 139.8 607.6 152.3ZM342 372.6L513 201.6L570.4 259L399.4 430C395.2 434.2 389.8 437.2 384 438.6L318.4 453.7L333.5 388C334.8 382.2 337.8 376.8 342.1 372.6H342ZM539.7 129.6L319.4 350C310.9 358.5 305 369.2 302.3 380.9L281.4 471.5C280.2 476.9 281.8 482.5 285.7 486.4C289.6 490.3 295.2 491.9 300.6 490.7L391.2 469.8C402.9 467.1 413.6 461.2 422.1 452.7L642.4 232.3C667.4 207.3 667.4 166.8 642.4 141.8L630.3 129.6C605.3 104.6 564.8 104.6 539.8 129.6H539.7ZM233 171C188.8 171 153 206.8 153 251V539C153 583.2 188.8 619 233 619H521C565.2 619 601 583.2 601 539V411C601 402.2 593.8 395 585 395C576.2 395 569 402.2 569 411V539C569 565.5 547.5 587 521 587H233C206.5 587 185 565.5 185 539V251C185 224.5 206.5 203 233 203H361C369.8 203 377 195.8 377 187C377 178.2 369.8 171 361 171H233Z" fill="black"/>
</svg>
